<?xml version="1.0" encoding="utf-8"?>
<!-- Svg Vector Icons : http://www.onlinewebfonts.com/icon -->
<!DOCTYPE svg PUBLIC "-//W3C//DTD SVG 1.1//EN" "http://www.w3.org/Graphics/SVG/1.1/DTD/svg11.dtd">
<svg version="1.1" xmlns="http://www.w3.org/2000/svg" xmlns:xlink="http://www.w3.org/1999/xlink" x="0px" y="0px" fill="#BAE8E8" viewBox="0 0 1000 1000" enable-background="new 0 0 1000 1000" xml:space="preserve">
<metadata> Svg Vector Icons : http://www.onlinewebfonts.com/icon </metadata>
<g><g><path d="M152.6,642.6c78.7,0,142.5-63.8,142.5-142.5c0-78.7-63.8-142.5-142.5-142.5C73.8,357.4,10,421.2,10,500C10,578.7,73.8,642.6,152.6,642.6z M152.6,431.2c37.9,0,68.7,30.9,68.7,68.7c0,37.9-30.9,68.7-68.7,68.7S83.9,537.8,83.9,500C83.9,462.1,114.6,431.2,152.6,431.2z"/><path d="M357.5,500c0,78.7,63.8,142.5,142.5,142.5S642.6,578.7,642.6,500c0-78.7-63.8-142.5-142.5-142.5S357.5,421.2,357.5,500z M568.8,500c0,37.9-30.9,68.7-68.7,68.7s-68.7-30.9-68.7-68.7c0-37.9,30.9-68.7,68.7-68.7S568.8,462.1,568.8,500z"/><path d="M847.5,357.4C768.8,357.4,705,421.2,705,500c0,78.7,63.8,142.5,142.5,142.5c78.7,0,142.5-63.8,142.5-142.5C990.1,421.2,926.3,357.4,847.5,357.4z M847.5,568.7c-37.9,0-68.7-30.9-68.7-68.7c0-37.9,30.9-68.7,68.7-68.7c37.9,0,68.7,30.9,68.7,68.7C916.2,537.8,885.5,568.7,847.5,568.7z"/></g><g></g><g></g><g></g><g></g><g></g><g></g><g></g><g></g><g></g><g></g><g></g><g></g><g></g><g></g><g></g></g>
</svg>